<svg width="50" height="50" viewBox="0 0 50 50" fill="none" xmlns="http://www.w3.org/2000/svg">
<g clip-path="url(#clip0_105_45)">
<path d="M25 50C38.8071 50 50 38.8071 50 25C50 11.1929 38.8071 0 25 0C11.1929 0 0 11.1929 0 25C0 38.8071 11.1929 50 25 50Z" fill="#5865F2"/>
<path d="M33.6634 17.041C32.0425 16.2971 30.3319 15.7666 28.5745 15.4629C28.5585 15.4598 28.542 15.4619 28.5272 15.4689C28.5125 15.4758 28.5003 15.4872 28.4925 15.5015C28.2591 15.9244 28.0473 16.3589 27.8577 16.8032C25.9635 16.5155 24.0366 16.5155 22.1424 16.8032C21.952 16.3578 21.7371 15.9232 21.4988 15.5015C21.4907 15.4875 21.4784 15.4763 21.4638 15.4694C21.4492 15.4626 21.4328 15.4603 21.4168 15.4629C19.6599 15.7661 17.9499 16.2966 16.3299 17.041C16.3159 17.0469 16.3042 17.0569 16.2962 17.0698C13.0555 21.9121 12.1678 26.6352 12.6033 31.2988C12.6046 31.3103 12.6081 31.3214 12.6137 31.3314C12.6193 31.3415 12.6269 31.3503 12.636 31.3574C14.5232 32.7553 16.6341 33.8224 18.8787 34.5132C18.8946 34.5179 18.9115 34.5177 18.9272 34.5125C18.9429 34.5074 18.9566 34.4976 18.9666 34.4844C19.4486 33.8282 19.8756 33.1335 20.2435 32.4072C20.2485 32.3973 20.2513 32.3863 20.2518 32.3752C20.2523 32.364 20.2505 32.3529 20.2464 32.3425C20.2423 32.3322 20.236 32.3228 20.228 32.315C20.22 32.3072 20.2105 32.3012 20.2 32.2974C19.5265 32.0401 18.8744 31.7299 18.2498 31.3696C18.2385 31.363 18.229 31.3536 18.2221 31.3424C18.2152 31.3312 18.2112 31.3184 18.2105 31.3053C18.2097 31.2922 18.2122 31.2791 18.2177 31.2671C18.2232 31.2552 18.2315 31.2448 18.242 31.2368C18.3729 31.1392 18.5042 31.0366 18.6292 30.9331C18.6403 30.924 18.6537 30.9182 18.668 30.9163C18.6822 30.9144 18.6967 30.9165 18.7098 30.9224C22.8011 32.7905 27.2308 32.7905 31.2737 30.9224C31.2869 30.916 31.3016 30.9136 31.3162 30.9153C31.3307 30.9171 31.3444 30.9229 31.3558 30.9321C31.4808 31.0351 31.6121 31.1387 31.7464 31.2368C31.7569 31.2447 31.7653 31.255 31.7709 31.2669C31.7765 31.2788 31.7791 31.2919 31.7784 31.305C31.7777 31.3182 31.7738 31.3309 31.767 31.3422C31.7603 31.3534 31.7508 31.3629 31.7396 31.3696C31.1158 31.7334 30.4625 32.0437 29.7864 32.2974C29.7759 32.3013 29.7663 32.3075 29.7583 32.3154C29.7504 32.3234 29.7441 32.3329 29.7401 32.3435C29.7361 32.354 29.7344 32.3652 29.735 32.3765C29.7357 32.3877 29.7387 32.3987 29.7439 32.4087C30.1179 33.131 30.5444 33.8249 31.0198 34.4849C31.0295 34.4984 31.0432 34.5086 31.0589 34.514C31.0747 34.5193 31.0918 34.5196 31.1077 34.5146C33.3554 33.8259 35.4691 32.7587 37.3577 31.3589C37.367 31.3522 37.3747 31.3435 37.3803 31.3336C37.386 31.3237 37.3894 31.3126 37.3904 31.3013C37.9119 25.9087 36.5174 21.2241 33.6941 17.0718C33.6878 17.0582 33.6769 17.0473 33.6634 17.041ZM20.8538 28.4595C19.6219 28.4595 18.6077 27.3286 18.6077 25.9399C18.6077 24.5513 19.6028 23.4204 20.8538 23.4204C22.115 23.4204 23.1204 24.561 23.0999 25.9399C23.1009 27.3286 22.1053 28.4595 20.8538 28.4595ZM29.1609 28.4595C27.929 28.4595 26.9148 27.3286 26.9148 25.9399C26.9148 24.5513 27.91 23.4204 29.1609 23.4204C30.4222 23.4204 31.4275 24.561 31.407 25.9399C31.4075 27.3286 30.4222 28.4595 29.1609 28.4595Z" fill="white"/>
</g>
<defs>
<clipPath id="clip0_105_45">
<rect width="50" height="50" fill="white"/>
</clipPath>
</defs>
</svg>
