<svg width="50" height="50" viewBox="0 0 50 50" fill="none" xmlns="http://www.w3.org/2000/svg">
<g clip-path="url(#clip0_105_20)">
<path d="M25 0C11.1928 0 0 11.1928 0 25C0 38.8072 11.1928 50 25 50C38.8072 50 50 38.8072 50 25C50 11.1928 38.8072 0 25 0Z" fill="#40B3E0"/>
<path d="M37.1647 14.381L32.6995 36.8941C32.6995 36.8941 32.0751 38.4554 30.3577 37.706L20.0534 29.806L16.3065 27.9951L9.9991 25.8716C9.9991 25.8716 9.03113 25.5283 8.93738 24.7789C8.84383 24.0295 10.0304 23.6236 10.0304 23.6236L35.1038 13.7877C35.1038 13.7877 37.1647 12.8822 37.1647 14.381Z" fill="white"/>
<path d="M19.2615 36.6413C19.2615 36.6413 18.9607 36.6132 18.5859 35.4265C18.2113 34.2399 16.3066 27.995 16.3066 27.995L31.4506 18.3778C31.4506 18.3778 32.325 17.847 32.2937 18.3778C32.2937 18.3778 32.4498 18.4714 31.9814 18.9085C31.5131 19.3458 20.0848 29.6187 20.0848 29.6187" fill="#D2E5F1"/>
<path d="M24.0042 32.835L19.9284 36.5511C19.9284 36.5511 19.6099 36.7929 19.2612 36.6413L20.0417 29.7388" fill="#B5CFE4"/>
</g>
<defs>
<clipPath id="clip0_105_20">
<rect width="50" height="50" fill="white"/>
</clipPath>
</defs>
</svg>
