<svg width="29" height="43" viewBox="0 0 29 43" fill="none" xmlns="http://www.w3.org/2000/svg">
<g clip-path="url(#clip0_47_6)">
<path d="M14.4712 21.5081C14.4712 17.5612 17.707 14.3453 21.7149 14.3453C25.7063 14.3453 28.9586 17.545 28.9586 21.5081C28.9586 25.455 25.7228 28.671 21.7149 28.671C17.7235 28.671 14.4712 25.455 14.4712 21.5081Z" fill="#1ABCFE"/>
<path d="M0 35.8176C0 31.8707 3.23586 28.6547 7.24372 28.6547H14.4874V35.8176C14.4874 39.7644 11.2516 42.9804 7.24372 42.9804C3.23586 42.9804 0 39.7807 0 35.8176Z" fill="#0ACF83"/>
<path d="M14.4712 0.0358498V14.3453H21.7149C25.7063 14.3453 28.9586 11.1456 28.9586 7.18245C28.9586 3.23558 25.7228 0.0196075 21.7149 0.0196075H14.4712V0.0358498Z" fill="#FF7262"/>
<path d="M0 7.19868C0 11.1456 3.23586 14.3615 7.24372 14.3615H14.4874V0.0358429H7.24372C3.23586 0.0358429 0 3.23557 0 7.19868Z" fill="#F24E1E"/>
<path d="M0 21.5081C0 25.455 3.23586 28.671 7.24372 28.671H14.4874V14.3453H7.24372C3.23586 14.3453 0 17.5612 0 21.5081Z" fill="#A259FF"/>
</g>
<defs>
<clipPath id="clip0_47_6">
<rect width="29" height="43" fill="white"/>
</clipPath>
</defs>
</svg>
