<svg width="30" height="29" viewBox="0 0 30 29" fill="none" xmlns="http://www.w3.org/2000/svg">
<g clip-path="url(#clip0_47_2)">
<path d="M14.942 0C6.69082 0 0 6.64747 0 14.8478C0 21.408 4.28133 26.9736 10.2183 28.9369C10.965 29.0743 11.2392 28.6148 11.2392 28.2226C11.2392 27.8686 11.2253 26.6989 11.2189 25.4582C7.06195 26.3564 6.1848 23.7064 6.1848 23.7064C5.50512 21.9902 4.52578 21.5339 4.52578 21.5339C3.17016 20.6123 4.62797 20.6312 4.62797 20.6312C6.12844 20.736 6.91852 22.1613 6.91852 22.1613C8.25117 24.4313 10.414 23.775 11.2666 23.3957C11.4007 22.4359 11.788 21.781 12.2153 21.4102C8.89652 21.0347 5.40762 19.7616 5.40762 14.0724C5.40762 12.4514 5.99133 11.1268 6.94723 10.087C6.79207 9.71298 6.28066 8.20288 7.09195 6.15769C7.09195 6.15769 8.34668 5.75862 11.2021 7.67967C12.3939 7.35059 13.6721 7.1857 14.942 7.18011C16.2118 7.1857 17.4911 7.35059 18.6852 7.67967C21.5372 5.75862 22.7902 6.15769 22.7902 6.15769C23.6034 8.20288 23.0918 9.71298 22.9366 10.087C23.8946 11.1268 24.4744 12.4513 24.4744 14.0724C24.4744 19.7751 20.9789 21.0309 17.6517 21.3984C18.1876 21.8592 18.6652 22.7628 18.6652 24.148C18.6652 26.1346 18.6478 27.7335 18.6478 28.2226C18.6478 28.6177 18.9168 29.0807 19.6743 28.9349C25.6079 26.9694 29.8839 21.4058 29.8839 14.8478C29.8839 6.64747 23.194 0 14.942 0Z" fill="#161614"/>
<path d="M5.59649 21.151C5.56368 21.2247 5.44672 21.2469 5.34044 21.1963C5.23204 21.1479 5.1711 21.0473 5.20626 20.9732C5.23848 20.8973 5.35544 20.8761 5.4636 20.9271C5.57223 20.9754 5.63411 21.077 5.59649 21.151ZM6.33149 21.8027C6.26024 21.8684 6.1209 21.8378 6.02633 21.7341C5.9286 21.6306 5.91032 21.4922 5.98262 21.4255C6.0561 21.3599 6.19122 21.3906 6.28919 21.4942C6.38692 21.5989 6.4059 21.7364 6.33137 21.8028M6.83575 22.6365C6.74411 22.6997 6.59434 22.6404 6.50188 22.5084C6.41036 22.3764 6.41036 22.2181 6.50387 22.1546C6.59669 22.0911 6.74411 22.1482 6.83786 22.2792C6.92926 22.4135 6.92926 22.5718 6.83563 22.6366M7.68841 23.6022C7.60649 23.6918 7.43212 23.6678 7.30438 23.5453C7.17383 23.4256 7.13739 23.2557 7.21954 23.1659C7.30239 23.076 7.47782 23.1013 7.60649 23.2228C7.73622 23.3422 7.77571 23.5134 7.68841 23.6022ZM8.79044 23.9282C8.75446 24.0444 8.58641 24.0973 8.41719 24.0479C8.24821 23.997 8.13758 23.8608 8.17169 23.7433C8.20684 23.6263 8.37559 23.5712 8.5461 23.6241C8.71485 23.6747 8.82559 23.8099 8.79044 23.9282ZM10.0448 24.0664C10.049 24.1889 9.90548 24.2905 9.72782 24.2927C9.54911 24.2965 9.40462 24.1974 9.40274 24.077C9.40274 23.9534 9.54301 23.8528 9.72161 23.8498C9.89926 23.8464 10.0448 23.9448 10.0448 24.0664ZM11.2769 24.0195C11.2982 24.139 11.1747 24.2617 10.9984 24.2943C10.8249 24.3258 10.6644 24.2521 10.6422 24.1336C10.6207 24.0111 10.7465 23.8885 10.9196 23.8567C11.0963 23.8262 11.2544 23.8981 11.2769 24.0195Z" fill="#161614"/>
</g>
<defs>
<clipPath id="clip0_47_2">
<rect width="30" height="29" fill="white"/>
</clipPath>
</defs>
</svg>
