<svg width="50" height="50" viewBox="0 0 50 50" fill="none" xmlns="http://www.w3.org/2000/svg">
<g clip-path="url(#clip0_105_54)">
<path d="M25 50C38.8071 50 50 38.8071 50 25C50 11.1929 38.8071 0 25 0C11.1929 0 0 11.1929 0 25C0 38.8071 11.1929 50 25 50Z" fill="#77B3D4"/>
<g opacity="0.2">
<path d="M25 9.375C15.5469 9.375 7.8125 17.1094 7.8125 26.5625C7.8125 36.0156 15.5469 43.75 25 43.75C27.7344 43.75 30.4687 43.125 32.8906 41.875C33.6719 41.4844 33.9844 40.5469 33.5938 39.7656C33.2031 38.9844 32.2656 38.6719 31.4844 39.0625C29.4531 40.0781 27.3437 40.625 25.0781 40.625C17.3437 40.625 11.0156 34.2969 11.0156 26.5625C11.0156 18.8281 17.3437 12.5 25.0781 12.5C32.8125 12.5 39.1406 18.8281 39.1406 26.5625C39.1406 28.9062 38.5156 31.25 37.4219 33.2812C36.0156 32.1875 33.9844 30 33.9844 26.6406V19.7656C33.9844 18.9062 33.2812 18.2031 32.4219 18.2031C31.5625 18.2031 30.8594 18.9062 30.8594 19.7656V19.8438C29.2969 18.5156 27.2656 17.6562 25.0781 17.6562C20.1562 17.6562 16.1719 21.6406 16.1719 26.5625C16.1719 31.4844 20.0781 35.4688 25 35.4688C27.8906 35.4688 30.4687 34.0625 32.1094 31.875C33.9062 35.1562 36.9531 36.7969 37.1094 36.875C37.8125 37.2656 38.6719 37.0312 39.1406 36.4062C41.1719 33.5156 42.1875 30.1562 42.1875 26.5625C42.1875 17.1094 34.4531 9.375 25 9.375ZM25 32.3438C21.7969 32.3438 19.2188 29.7656 19.2188 26.5625C19.2188 23.3594 21.7969 20.7812 25 20.7812C28.2031 20.7812 30.7813 23.3594 30.7813 26.5625C30.7813 29.7656 28.2031 32.3438 25 32.3438Z" fill="#231F20"/>
</g>
<path d="M25 42.1875C15.5469 42.1875 7.8125 34.4531 7.8125 25C7.8125 15.5469 15.5469 7.8125 25 7.8125C34.4531 7.8125 42.1875 15.5469 42.1875 25C42.1875 28.5156 41.0938 31.9531 39.1406 34.8437C38.6719 35.4687 37.8125 35.7031 37.1094 35.3125C36.875 35.1562 30.7813 32.0312 30.7813 25.0781V18.2031C30.7813 17.3437 31.4844 16.6406 32.3438 16.6406C33.2031 16.6406 33.9063 17.3437 33.9063 18.2031V25.0781C33.9063 28.4375 35.9375 30.625 37.3438 31.7187C38.4375 29.6875 39.0625 27.3438 39.0625 25C39.0625 17.2656 32.7344 10.9375 25 10.9375C17.2656 10.9375 10.9375 17.2656 10.9375 25C10.9375 32.7344 17.2656 39.0625 25 39.0625C27.2656 39.0625 29.4531 38.5156 31.4062 37.5C32.1875 37.1094 33.125 37.4219 33.5156 38.2031C33.9063 38.9844 33.5938 39.9219 32.8125 40.3125C30.4688 41.5625 27.7344 42.1875 25 42.1875Z" fill="white"/>
<path d="M25 19.2187C28.2031 19.2187 30.7812 21.7969 30.7812 25C30.7812 28.2031 28.2031 30.7812 25 30.7812C21.7969 30.7812 19.2187 28.2031 19.2187 25C19.2187 21.7969 21.7969 19.2187 25 19.2187ZM25 16.0938C20.0781 16.0938 16.0938 20.0781 16.0938 25C16.0938 29.9219 20.0781 33.9062 25 33.9062C29.9219 33.9062 33.9062 29.9219 33.9062 25C33.9062 20.0781 29.9219 16.0938 25 16.0938Z" fill="white"/>
</g>
<defs>
<clipPath id="clip0_105_54">
<rect width="50" height="50" fill="white"/>
</clipPath>
</defs>
</svg>
