<svg width="50" height="50" viewBox="0 0 50 50" fill="none" xmlns="http://www.w3.org/2000/svg">
<path d="M25 50C38.8071 50 50 38.8071 50 25C50 11.1929 38.8071 0 25 0C11.1929 0 0 11.1929 0 25C0 38.8071 11.1929 50 25 50Z" fill="#2787F5"/>
<path d="M28.605 13.2568H21.395C14.8149 13.2568 13.2568 14.8149 13.2568 21.395V28.605C13.2568 35.1851 14.8149 36.7432 21.395 36.7432H28.605C35.1851 36.7432 36.7432 35.1851 36.7432 28.605V21.395C36.7432 14.8149 35.1685 13.2568 28.605 13.2568ZM32.2183 30.0137H30.5093C29.8628 30.0137 29.6641 29.5 28.5039 28.3232C27.4927 27.3467 27.0454 27.2129 26.7949 27.2129C26.4468 27.2129 26.3472 27.3105 26.3472 27.793V29.3345C26.3472 29.749 26.2144 29.9976 25.1206 29.9976C23.314 29.9976 21.3086 28.9038 19.8994 26.8647C17.7778 23.8813 17.1978 21.6436 17.1978 21.1797C17.1978 20.9312 17.2954 20.6992 17.7778 20.6992H19.4868C19.918 20.6992 20.0835 20.8979 20.249 21.3623C21.0942 23.7988 22.5034 25.937 23.0811 25.937C23.2964 25.937 23.396 25.8394 23.396 25.2905V22.771C23.3296 21.6108 22.7163 21.5112 22.7163 21.0972C22.7163 20.8984 22.8818 20.6992 23.1475 20.6992H25.833C26.1978 20.6992 26.3301 20.8979 26.3301 21.3291V24.7266C26.3301 25.0913 26.4956 25.2236 26.5952 25.2236C26.8105 25.2236 26.9932 25.0908 27.3906 24.6934C28.6172 23.3179 29.4956 21.1963 29.4956 21.1963C29.6118 20.9478 29.8105 20.7158 30.2417 20.7158H31.9507C32.4644 20.7158 32.5806 20.981 32.4644 21.3457C32.249 22.3403 30.1606 25.2905 30.1606 25.2905C29.9785 25.5889 29.9121 25.7217 30.1606 26.0527C30.3428 26.3013 30.9419 26.8149 31.3374 27.2793C32.0669 28.1094 32.6304 28.8042 32.7793 29.2847C32.9478 29.7651 32.6987 30.0137 32.2183 30.0137Z" fill="white"/>
</svg>
